<svg width="88" height="39" viewBox="0 0 88 39" fill="none" xmlns="http://www.w3.org/2000/svg">
<path d="M18.976 14.84C18.1867 13.944 17.248 13.24 16.16 12.728C15.072 12.1947 13.984 11.928 12.896 11.928C11.8507 11.928 10.8693 12.1307 9.952 12.536C9.056 12.92 8.256 13.4747 7.552 14.2C6.86933 14.904 6.336 15.7253 5.952 16.664C5.568 17.6027 5.376 18.616 5.376 19.704C5.376 20.792 5.568 21.816 5.952 22.776C6.336 23.7147 6.86933 24.536 7.552 25.24C8.256 25.944 9.056 26.4987 9.952 26.904C10.8693 27.3093 11.8507 27.512 12.896 27.512C13.984 27.512 15.0613 27.2773 16.128 26.808C17.1947 26.3173 18.144 25.656 18.976 24.824L21.504 27.48C20.7573 28.248 19.8933 28.92 18.912 29.496C17.952 30.072 16.9387 30.52 15.872 30.84C14.8267 31.1387 13.76 31.288 12.672 31.288C11.0293 31.288 9.49333 31 8.064 30.424C6.656 29.8267 5.41867 29.0053 4.352 27.96C3.30667 26.9147 2.48533 25.688 1.888 24.28C1.29067 22.872 0.992 21.368 0.992 19.768C0.992 18.1467 1.29067 16.6533 1.888 15.288C2.48533 13.9013 3.328 12.6853 4.416 11.64C5.504 10.5947 6.752 9.784 8.16 9.208C9.58933 8.632 11.1467 8.344 12.832 8.344C13.92 8.344 14.976 8.49333 16 8.792C17.0453 9.06933 18.0373 9.47467 18.976 10.008C19.9147 10.52 20.7467 11.1493 21.472 11.896L18.976 14.84ZM31.9178 8.6H36.3018L45.9978 31H41.4218L33.9658 12.92L26.5418 31H22.0617L31.9178 8.6ZM27.2138 22.616H40.5578V26.104H27.2138V22.616ZM58.096 8.6C60.9973 8.6 63.2373 9.272 64.816 10.616C66.3947 11.96 67.184 13.848 67.184 16.28C67.184 18.8187 66.3947 20.792 64.816 22.2C63.2373 23.608 60.9973 24.312 58.096 24.312H53.04V31H48.752V8.6H58.096ZM58.096 20.76C59.696 20.76 60.9333 20.3973 61.808 19.672C62.6827 18.9467 63.12 17.848 63.12 16.376C63.12 14.968 62.6827 13.9227 61.808 13.24C60.9333 12.536 59.696 12.184 58.096 12.184H53.04V20.76H58.096ZM57.936 22.68H62.128L67.632 31H62.768L57.936 22.68ZM69.381 8.6H87.653V12.216H80.677V31H76.357V12.216H69.381V8.6Z" fill="#5A3E36"/>
</svg>
