<svg width="34" height="34" viewBox="0 0 34 34" fill="none" xmlns="http://www.w3.org/2000/svg">
<path d="M11.3334 13.0333V10.7667C11.3334 9.26378 11.9304 7.82244 12.9931 6.75973C14.0558 5.69703 15.4972 5.10001 17 5.10001C18.5029 5.10001 19.9443 5.69703 21.007 6.75973C22.0697 7.82244 22.6667 9.26378 22.6667 10.7667V13.0333H26.0667C26.3673 13.0333 26.6556 13.1527 26.8681 13.3653C27.0806 13.5778 27.2 13.8661 27.2 14.1667V27.7667C27.2 28.0673 27.0806 28.3555 26.8681 28.5681C26.6556 28.7806 26.3673 28.9 26.0667 28.9H7.93338C7.6328 28.9 7.34454 28.7806 7.13199 28.5681C6.91945 28.3555 6.80005 28.0673 6.80005 27.7667V14.1667C6.80005 13.8661 6.91945 13.5778 7.13199 13.3653C7.34454 13.1527 7.6328 13.0333 7.93338 13.0333H11.3334ZM11.3334 15.3H9.06672V26.6333H24.9334V15.3H22.6667V17.5667H20.4V15.3H13.6V17.5667H11.3334V15.3ZM13.6 13.0333H20.4V10.7667C20.4 9.86494 20.0418 9.00013 19.4042 8.36251C18.7666 7.72489 17.9018 7.36667 17 7.36667C16.0983 7.36667 15.2335 7.72489 14.5959 8.36251C13.9583 9.00013 13.6 9.86494 13.6 10.7667V13.0333Z" fill="#001018"/>
</svg>
