<svg width="33" height="33" viewBox="0 0 33 33" fill="none" xmlns="http://www.w3.org/2000/svg">
<path fill-rule="evenodd" clip-rule="evenodd" d="M16.25 0C7.275 0 0 7.275 0 16.25C0 25.225 7.275 32.5 16.25 32.5C25.225 32.5 32.5 25.225 32.5 16.25C32.5 7.275 25.225 0 16.25 0ZM13.3833 11.6167C13.2689 11.4939 13.1309 11.3954 12.9776 11.327C12.8242 11.2587 12.6587 11.222 12.4909 11.219C12.323 11.2161 12.1563 11.2469 12.0007 11.3098C11.845 11.3727 11.7036 11.4662 11.5849 11.5849C11.4662 11.7036 11.3727 11.845 11.3098 12.0007C11.2469 12.1563 11.2161 12.323 11.219 12.4909C11.222 12.6587 11.2587 12.8242 11.327 12.9776C11.3954 13.1309 11.4939 13.2689 11.6167 13.3833L14.4833 16.25L11.6167 19.1167C11.4939 19.2311 11.3954 19.3691 11.327 19.5224C11.2587 19.6758 11.222 19.8413 11.219 20.0091C11.2161 20.177 11.2469 20.3437 11.3098 20.4993C11.3727 20.655 11.4662 20.7964 11.5849 20.9151C11.7036 21.0338 11.845 21.1273 12.0007 21.1902C12.1563 21.2531 12.323 21.2839 12.4909 21.281C12.6587 21.278 12.8242 21.2413 12.9776 21.173C13.1309 21.1046 13.2689 21.0061 13.3833 20.8833L16.25 18.0167L19.1167 20.8833C19.2311 21.0061 19.3691 21.1046 19.5224 21.173C19.6758 21.2413 19.8413 21.278 20.0091 21.281C20.177 21.2839 20.3437 21.2531 20.4993 21.1902C20.655 21.1273 20.7964 21.0338 20.9151 20.9151C21.0338 20.7964 21.1273 20.655 21.1902 20.4993C21.2531 20.3437 21.2839 20.177 21.281 20.0091C21.278 19.8413 21.2413 19.6758 21.173 19.5224C21.1046 19.3691 21.0061 19.2311 20.8833 19.1167L18.0167 16.25L20.8833 13.3833C21.0061 13.2689 21.1046 13.1309 21.173 12.9776C21.2413 12.8242 21.278 12.6587 21.281 12.4909C21.2839 12.323 21.2531 12.1563 21.1902 12.0007C21.1273 11.845 21.0338 11.7036 20.9151 11.5849C20.7964 11.4662 20.655 11.3727 20.4993 11.3098C20.3437 11.2469 20.177 11.2161 20.0091 11.219C19.8413 11.222 19.6758 11.2587 19.5224 11.327C19.3691 11.3954 19.2311 11.4939 19.1167 11.6167L16.25 14.4833L13.3833 11.6167Z" fill="#5A3E36"/>
</svg>
