<svg width="34" height="34" viewBox="0 0 34 34" fill="none" xmlns="http://www.w3.org/2000/svg">
<path fill-rule="evenodd" clip-rule="evenodd" d="M27.668 14.0329C27.668 10.299 25.0415 7.63199 21.8005 7.63199C19.8163 7.63199 18.0667 8.6988 16.9999 9.76561C15.9331 8.6988 14.1835 7.63199 12.1992 7.63199C8.99881 7.63199 6.33179 10.299 6.33179 14.0329C6.33179 21.0748 13.4465 25.2708 16.4942 27.0682C16.6784 27.1768 16.8478 27.2768 16.9999 27.368C17.152 27.2768 17.3214 27.1768 17.5056 27.0682C20.5533 25.2708 27.668 21.0748 27.668 14.0329ZM20.578 22.4639C19.7843 23.0954 18.9362 23.6854 17.9963 24.2785C17.6773 24.4791 17.3615 24.6722 16.9999 24.8877C16.6382 24.6722 16.3225 24.4791 16.0035 24.2774C15.0636 23.6854 14.2155 23.0954 13.4207 22.4639C10.2427 19.9355 8.46541 17.1735 8.46541 14.0329C8.46541 11.5322 10.1296 9.76561 12.1992 9.76561C13.3471 9.76561 14.5889 10.3737 15.4914 11.2741L16.9999 12.7826L18.5084 11.2741C19.4109 10.3737 20.6527 9.76561 21.8005 9.76561C23.8947 9.76561 25.5344 11.5152 25.5344 14.0329C25.5344 17.1725 23.7581 19.9355 20.578 22.4639Z" fill="black"/>
</svg>
