<svg width="182" height="62" viewBox="0 0 182 62" fill="none" xmlns="http://www.w3.org/2000/svg">
<path fill-rule="evenodd" clip-rule="evenodd" d="M90.9998 26.6667C83.6358 26.6667 77.6665 20.6973 77.6665 13.3333C77.6665 5.96933 83.6358 0 90.9998 0C98.3638 0 104.333 5.96933 104.333 13.3333C104.333 20.6973 98.3638 26.6667 90.9998 26.6667ZM90.9998 24C96.8909 24 101.667 19.2244 101.667 13.3333C101.667 7.4423 96.8909 2.66667 90.9998 2.66667C85.1088 2.66667 80.3332 7.4423 80.3332 13.3333C80.3332 19.2244 85.1088 24 90.9998 24ZM90.9998 20C93.9454 20 96.3332 17.6122 96.3332 14.6667H85.6665C85.6665 17.6122 88.0543 20 90.9998 20ZM85.6665 12C84.5619 12 83.6665 11.1046 83.6665 10C83.6665 8.89543 84.5619 8 85.6665 8C86.7711 8 87.6665 8.89543 87.6665 10C87.6665 11.1046 86.7711 12 85.6665 12ZM94.3332 10C94.3332 11.1046 95.2286 12 96.3332 12C97.4377 12 98.3332 11.1046 98.3332 10C98.3332 8.89543 97.4377 8 96.3332 8C95.2286 8 94.3332 8.89543 94.3332 10Z" fill="white"/>
<path d="M1.032 50.2667H2.64V53.8907H6.828V50.2667H8.448V58.6667H6.828V55.2227H2.64V58.6667H1.032V50.2667ZM9.50447 50.2667H11.2325L13.7045 56.9747L16.1885 50.2667H17.8685L14.4965 58.6667H12.8285L9.50447 50.2667ZM20.9692 50.2667H22.6132L26.2492 58.6667H24.5332L21.7372 51.8867L18.9532 58.6667H17.2732L20.9692 50.2667ZM19.2052 55.5227H24.2092V56.8307H19.2052V55.5227ZM27.282 50.2667H28.89V57.2987H32.514V58.6667H27.282V50.2667ZM36.4848 50.2667H38.1288L41.7648 58.6667H40.0488L37.2528 51.8867L34.4688 58.6667H32.7888L36.4848 50.2667ZM34.7208 55.5227H39.7248V56.8307H34.7208V55.5227ZM51.312 52.3427C51.016 52.1587 50.712 52.0067 50.4 51.8867C50.096 51.7667 49.808 51.6827 49.536 51.6347C49.264 51.5787 49.016 51.5507 48.792 51.5507C48.416 51.5507 48.112 51.6227 47.88 51.7667C47.656 51.9107 47.544 52.1227 47.544 52.4027C47.544 52.6587 47.624 52.8667 47.784 53.0267C47.952 53.1867 48.168 53.3187 48.432 53.4227C48.704 53.5267 49 53.6267 49.32 53.7227C49.64 53.8187 49.96 53.9267 50.28 54.0467C50.6 54.1587 50.892 54.3067 51.156 54.4907C51.428 54.6747 51.644 54.9107 51.804 55.1987C51.964 55.4867 52.044 55.8467 52.044 56.2787C52.044 56.7987 51.904 57.2427 51.624 57.6107C51.344 57.9787 50.96 58.2627 50.472 58.4627C49.992 58.6627 49.444 58.7627 48.828 58.7627C48.38 58.7627 47.94 58.7067 47.508 58.5947C47.084 58.4747 46.68 58.3147 46.296 58.1147C45.92 57.9147 45.58 57.6827 45.276 57.4187L45.948 56.1107C46.236 56.3747 46.548 56.6027 46.884 56.7947C47.22 56.9787 47.556 57.1227 47.892 57.2267C48.236 57.3227 48.556 57.3707 48.852 57.3707C49.308 57.3707 49.66 57.2827 49.908 57.1067C50.164 56.9307 50.292 56.6827 50.292 56.3627C50.292 56.0987 50.208 55.8867 50.04 55.7267C49.88 55.5667 49.668 55.4347 49.404 55.3307C49.14 55.2187 48.844 55.1227 48.516 55.0427C48.196 54.9547 47.876 54.8547 47.556 54.7427C47.236 54.6227 46.94 54.4747 46.668 54.2987C46.404 54.1147 46.188 53.8827 46.02 53.6027C45.86 53.3227 45.78 52.9667 45.78 52.5347C45.78 52.0467 45.912 51.6267 46.176 51.2747C46.44 50.9147 46.804 50.6387 47.268 50.4467C47.74 50.2467 48.292 50.1467 48.924 50.1467C49.484 50.1467 50.028 50.2267 50.556 50.3867C51.092 50.5467 51.56 50.7587 51.96 51.0227L51.312 52.3427ZM49.344 49.5227H47.832L46.536 47.8187H47.928L49.032 49.0547H48.144L49.248 47.8187H50.64L49.344 49.5227ZM52.6312 50.2667H59.4832V51.6227H56.8672V58.6667H55.2472V51.6227H52.6312V50.2667ZM63.9574 50.1707C64.5894 50.1707 65.1774 50.2787 65.7214 50.4947C66.2654 50.7107 66.7374 51.0147 67.1374 51.4067C67.5454 51.7987 67.8614 52.2547 68.0854 52.7747C68.3174 53.2867 68.4334 53.8467 68.4334 54.4547C68.4334 55.0547 68.3174 55.6187 68.0854 56.1467C67.8614 56.6747 67.5454 57.1347 67.1374 57.5267C66.7374 57.9187 66.2654 58.2267 65.7214 58.4507C65.1774 58.6667 64.5894 58.7747 63.9574 58.7747C63.3254 58.7747 62.7374 58.6667 62.1934 58.4507C61.6574 58.2267 61.1854 57.9187 60.7774 57.5267C60.3694 57.1347 60.0494 56.6787 59.8174 56.1587C59.5934 55.6307 59.4814 55.0627 59.4814 54.4547C59.4814 53.8467 59.5934 53.2827 59.8174 52.7627C60.0494 52.2427 60.3694 51.7907 60.7774 51.4067C61.1854 51.0147 61.6574 50.7107 62.1934 50.4947C62.7374 50.2787 63.3254 50.1707 63.9574 50.1707ZM63.9814 51.5267C63.5894 51.5267 63.2214 51.6027 62.8774 51.7547C62.5334 51.8987 62.2294 52.1067 61.9654 52.3787C61.7014 52.6427 61.4934 52.9507 61.3414 53.3027C61.1974 53.6547 61.1254 54.0387 61.1254 54.4547C61.1254 54.8707 61.2014 55.2587 61.3534 55.6187C61.5054 55.9707 61.7134 56.2827 61.9774 56.5547C62.2414 56.8267 62.5454 57.0387 62.8894 57.1907C63.2334 57.3427 63.5974 57.4187 63.9814 57.4187C64.3654 57.4187 64.7254 57.3427 65.0614 57.1907C65.4054 57.0387 65.7054 56.8267 65.9614 56.5547C66.2174 56.2827 66.4174 55.9707 66.5614 55.6187C66.7134 55.2587 66.7894 54.8707 66.7894 54.4547C66.7894 54.0387 66.7134 53.6547 66.5614 53.3027C66.4174 52.9507 66.2174 52.6427 65.9614 52.3787C65.7054 52.1067 65.4054 51.8987 65.0614 51.7547C64.7254 51.6027 64.3654 51.5267 63.9814 51.5267ZM73.0789 50.2667H74.6869V54.5747L78.4789 50.2667H80.3749L74.6869 56.5187V58.6667H73.0789V50.2667ZM76.9909 53.6147L80.5789 58.6667H78.6469L75.9229 54.8987L76.9909 53.6147ZM83.2379 55.2107C83.2379 55.8987 83.4259 56.4387 83.8019 56.8307C84.1779 57.2227 84.6819 57.4187 85.3139 57.4187C85.9379 57.4187 86.4339 57.2267 86.8019 56.8427C87.1699 56.4507 87.3539 55.9067 87.3539 55.2107V50.2667H88.9619V55.2107C88.9619 55.9467 88.8139 56.5827 88.5179 57.1187C88.2299 57.6467 87.8099 58.0547 87.2579 58.3427C86.7139 58.6307 86.0659 58.7747 85.3139 58.7747C84.5539 58.7747 83.8979 58.6307 83.3459 58.3427C82.7939 58.0547 82.3699 57.6467 82.0739 57.1187C81.7779 56.5827 81.6299 55.9467 81.6299 55.2107V50.2667H83.2379V55.2107ZM94.2882 50.2667C95.3522 50.2667 96.1762 50.5187 96.7602 51.0227C97.3442 51.5267 97.6362 52.2347 97.6362 53.1467C97.6362 54.0987 97.3442 54.8387 96.7602 55.3667C96.1762 55.8947 95.3522 56.1587 94.2882 56.1587H91.7562L92.4642 55.4507V58.6667H90.8562V50.2667H94.2882ZM94.2162 54.8267C94.8162 54.8267 95.2762 54.6907 95.5962 54.4187C95.9242 54.1467 96.0882 53.7347 96.0882 53.1827C96.0882 52.6547 95.9242 52.2627 95.5962 52.0067C95.2762 51.7427 94.8162 51.6107 94.2162 51.6107H91.7562L92.4642 50.9027V55.5347L91.7562 54.8267H94.2162ZM100.406 55.2107C100.406 55.8987 100.594 56.4387 100.97 56.8307C101.346 57.2227 101.85 57.4187 102.482 57.4187C103.106 57.4187 103.602 57.2267 103.97 56.8427C104.338 56.4507 104.522 55.9067 104.522 55.2107V50.2667H106.13V55.2107C106.13 55.9467 105.982 56.5827 105.686 57.1187C105.398 57.6467 104.978 58.0547 104.426 58.3427C103.882 58.6307 103.234 58.7747 102.482 58.7747C101.722 58.7747 101.066 58.6307 100.514 58.3427C99.9619 58.0547 99.5379 57.6467 99.2419 57.1187C98.9459 56.5827 98.7979 55.9467 98.7979 55.2107V50.2667H100.406V55.2107ZM112.154 56.0507C112.154 56.9067 111.914 57.5707 111.434 58.0427C110.954 58.5067 110.298 58.7387 109.466 58.7387C108.938 58.7387 108.454 58.6307 108.014 58.4147C107.582 58.1907 107.202 57.8867 106.874 57.5027L107.63 56.3507C107.918 56.6547 108.218 56.8867 108.53 57.0467C108.842 57.2067 109.138 57.2867 109.418 57.2867C109.762 57.2867 110.034 57.1787 110.234 56.9627C110.434 56.7387 110.534 56.4227 110.534 56.0147V51.6227H107.642V50.2667H112.154V56.0507ZM114.048 50.2667H120.204V51.6107H115.656V53.7827H119.736V55.1147H115.656V57.3227H120.348V58.6667H114.048V50.2667ZM127.261 52.3427C126.965 52.1587 126.661 52.0067 126.349 51.8867C126.045 51.7667 125.757 51.6827 125.485 51.6347C125.213 51.5787 124.965 51.5507 124.741 51.5507C124.365 51.5507 124.061 51.6227 123.829 51.7667C123.605 51.9107 123.493 52.1227 123.493 52.4027C123.493 52.6587 123.573 52.8667 123.733 53.0267C123.901 53.1867 124.117 53.3187 124.381 53.4227C124.653 53.5267 124.949 53.6267 125.269 53.7227C125.589 53.8187 125.909 53.9267 126.229 54.0467C126.549 54.1587 126.841 54.3067 127.105 54.4907C127.377 54.6747 127.593 54.9107 127.753 55.1987C127.913 55.4867 127.993 55.8467 127.993 56.2787C127.993 56.7987 127.853 57.2427 127.573 57.6107C127.293 57.9787 126.909 58.2627 126.421 58.4627C125.941 58.6627 125.393 58.7627 124.777 58.7627C124.329 58.7627 123.889 58.7067 123.457 58.5947C123.033 58.4747 122.629 58.3147 122.245 58.1147C121.869 57.9147 121.529 57.6827 121.225 57.4187L121.897 56.1107C122.185 56.3747 122.497 56.6027 122.833 56.7947C123.169 56.9787 123.505 57.1227 123.841 57.2267C124.185 57.3227 124.505 57.3707 124.801 57.3707C125.257 57.3707 125.609 57.2827 125.857 57.1067C126.113 56.9307 126.241 56.6827 126.241 56.3627C126.241 56.0987 126.157 55.8867 125.989 55.7267C125.829 55.5667 125.617 55.4347 125.353 55.3307C125.089 55.2187 124.793 55.1227 124.465 55.0427C124.145 54.9547 123.825 54.8547 123.505 54.7427C123.185 54.6227 122.889 54.4747 122.617 54.2987C122.353 54.1147 122.137 53.8827 121.969 53.6027C121.809 53.3227 121.729 52.9667 121.729 52.5347C121.729 52.0467 121.861 51.6267 122.125 51.2747C122.389 50.9147 122.753 50.6387 123.217 50.4467C123.689 50.2467 124.241 50.1467 124.873 50.1467C125.433 50.1467 125.977 50.2267 126.505 50.3867C127.041 50.5467 127.509 50.7587 127.909 51.0227L127.261 52.3427ZM125.293 49.5227H123.781L122.485 47.8187H123.877L124.981 49.0547H124.093L125.197 47.8187H126.589L125.293 49.5227ZM138.031 52.3427C137.735 52.1587 137.431 52.0067 137.119 51.8867C136.815 51.7667 136.527 51.6827 136.255 51.6347C135.983 51.5787 135.735 51.5507 135.511 51.5507C135.135 51.5507 134.831 51.6227 134.599 51.7667C134.375 51.9107 134.263 52.1227 134.263 52.4027C134.263 52.6587 134.343 52.8667 134.503 53.0267C134.671 53.1867 134.887 53.3187 135.151 53.4227C135.423 53.5267 135.719 53.6267 136.039 53.7227C136.359 53.8187 136.679 53.9267 136.999 54.0467C137.319 54.1587 137.611 54.3067 137.875 54.4907C138.147 54.6747 138.363 54.9107 138.523 55.1987C138.683 55.4867 138.763 55.8467 138.763 56.2787C138.763 56.7987 138.623 57.2427 138.343 57.6107C138.063 57.9787 137.679 58.2627 137.191 58.4627C136.711 58.6627 136.163 58.7627 135.547 58.7627C135.099 58.7627 134.659 58.7067 134.227 58.5947C133.803 58.4747 133.399 58.3147 133.015 58.1147C132.639 57.9147 132.299 57.6827 131.995 57.4187L132.667 56.1107C132.955 56.3747 133.267 56.6027 133.603 56.7947C133.939 56.9787 134.275 57.1227 134.611 57.2267C134.955 57.3227 135.275 57.3707 135.571 57.3707C136.027 57.3707 136.379 57.2827 136.627 57.1067C136.883 56.9307 137.011 56.6827 137.011 56.3627C137.011 56.0987 136.927 55.8867 136.759 55.7267C136.599 55.5667 136.387 55.4347 136.123 55.3307C135.859 55.2187 135.563 55.1227 135.235 55.0427C134.915 54.9547 134.595 54.8547 134.275 54.7427C133.955 54.6227 133.659 54.4747 133.387 54.2987C133.123 54.1147 132.907 53.8827 132.739 53.6027C132.579 53.3227 132.499 52.9667 132.499 52.5347C132.499 52.0467 132.631 51.6267 132.895 51.2747C133.159 50.9147 133.523 50.6387 133.987 50.4467C134.459 50.2467 135.011 50.1467 135.643 50.1467C136.203 50.1467 136.747 50.2267 137.275 50.3867C137.811 50.5467 138.279 50.7587 138.679 51.0227L138.031 52.3427ZM143.52 50.2667H145.044L149.796 56.7227L149.376 56.8667V50.2667H150.936V58.6667H149.4L144.672 52.2227L145.092 52.0787V58.6667H143.52V50.2667ZM155.653 50.2667H157.297L160.933 58.6667H159.217L156.421 51.8867L153.637 58.6667H151.957L155.653 50.2667ZM153.889 55.5227H158.893V56.8307H153.889V55.5227ZM161.966 50.2667H163.802L166.586 55.7747L169.346 50.2667H171.182V58.6667H169.706V52.5107L167.09 57.8027H166.058L163.43 52.5107V58.6667H161.966V50.2667ZM175.903 50.2667H177.547L181.183 58.6667H179.467L176.671 51.8867L173.887 58.6667H172.207L175.903 50.2667ZM174.139 55.5227H179.143V56.8307H174.139V55.5227Z" fill="white"/>
</svg>
