<svg width="219" height="39" viewBox="0 0 219 39" fill="none" xmlns="http://www.w3.org/2000/svg">
<g clip-path="url(#clip0_652_5925)">
<path d="M25.497 12.4865C23.8563 12.4865 22.6056 13.8833 21.836 15.3324C21.6206 15.738 21.3572 16.1153 21.0483 16.4591C21.0468 16.4606 21.0452 16.4621 21.0437 16.4636C20.5051 17.0042 19.8771 17.4006 19.1853 17.724C18.3448 18.1189 17.5013 18.3163 16.6623 18.3163C15.8734 18.3163 15.1437 18.1629 14.4671 17.8546C13.792 17.5479 13.1973 17.1288 12.6784 16.5912C12.1641 16.0566 11.7621 15.4295 11.4845 14.7082C11.2038 13.9929 11.0612 13.2184 11.0612 12.3954C11.0612 11.5723 11.2038 10.7735 11.4845 10.0537C11.7621 9.33395 12.1641 8.7083 12.6784 8.17072C13.1973 7.63771 13.792 7.22162 14.4671 6.92094C15.1437 6.62482 15.8734 6.476 16.6623 6.476C17.5195 6.476 18.3782 6.69164 19.2399 7.11836C19.4553 7.22675 19.663 7.34531 19.8629 7.47403C20.797 8.07543 22.1087 8.11584 22.8294 7.27051C23.4188 6.57929 23.4028 5.53722 22.6726 4.99691C22.3864 4.78516 22.0867 4.58978 21.7734 4.41075C20.9952 3.96125 20.1623 3.6135 19.2763 3.36901C18.3918 3.12452 17.5013 3 16.6107 3C15.2089 3 13.9164 3.23842 12.733 3.71221C11.5512 4.18448 10.5105 4.85265 9.61539 5.71216C8.72485 6.57015 8.03154 7.57241 7.54151 8.71133C7.04845 9.85178 6.8042 11.0879 6.8042 12.4212C6.8042 12.4425 6.8042 12.4652 6.80572 12.4865H3.57324C1.70869 12.4865 0.295775 14.1694 0.61853 16.0058L3.69659 33.5193C3.94872 34.9538 5.19479 36 6.6513 36H26.4586C27.9208 36 29.1701 34.9458 29.4159 33.5043L32.4024 15.9908C32.7148 14.1589 31.3035 12.4865 29.4451 12.4865H25.497ZM25.369 31.7419H7.69171L5.0565 16.7446H7.79942C8.26062 17.6709 8.85229 18.4985 9.57898 19.2213C10.4437 20.0915 11.4632 20.7672 12.6284 21.2502C13.792 21.7331 15.0663 21.9745 16.4499 21.9745C17.345 21.9745 18.2386 21.8348 19.1337 21.5645C20.0273 21.2942 20.8829 20.91 21.6961 20.421C22.0177 20.2266 22.3272 20.0277 22.752 19.7103C23.289 19.2365 23.7563 18.7627 24.2676 17.9928C24.5346 17.5874 24.7728 17.1728 24.9836 16.7446H27.9253L25.369 31.7419Z" fill="#5A3E36"/>
</g>
<path d="M58.976 14.84C58.1867 13.944 57.248 13.24 56.16 12.728C55.072 12.1947 53.984 11.928 52.896 11.928C51.8507 11.928 50.8693 12.1307 49.952 12.536C49.056 12.92 48.256 13.4747 47.552 14.2C46.8693 14.904 46.336 15.7253 45.952 16.664C45.568 17.6027 45.376 18.616 45.376 19.704C45.376 20.792 45.568 21.816 45.952 22.776C46.336 23.7147 46.8693 24.536 47.552 25.24C48.256 25.944 49.056 26.4987 49.952 26.904C50.8693 27.3093 51.8507 27.512 52.896 27.512C53.984 27.512 55.0613 27.2773 56.128 26.808C57.1947 26.3173 58.144 25.656 58.976 24.824L61.504 27.48C60.7573 28.248 59.8933 28.92 58.912 29.496C57.952 30.072 56.9387 30.52 55.872 30.84C54.8267 31.1387 53.76 31.288 52.672 31.288C51.0293 31.288 49.4933 31 48.064 30.424C46.656 29.8267 45.4187 29.0053 44.352 27.96C43.3067 26.9147 42.4853 25.688 41.888 24.28C41.2907 22.872 40.992 21.368 40.992 19.768C40.992 18.1467 41.2907 16.6533 41.888 15.288C42.4853 13.9013 43.328 12.6853 44.416 11.64C45.504 10.5947 46.752 9.784 48.16 9.208C49.5893 8.632 51.1467 8.344 52.832 8.344C53.92 8.344 54.976 8.49333 56 8.792C57.0453 9.06933 58.0373 9.47467 58.976 10.008C59.9147 10.52 60.7467 11.1493 61.472 11.896L58.976 14.84ZM71.9178 8.6H76.3018L85.9978 31H81.4218L73.9658 12.92L66.5418 31H62.0617L71.9178 8.6ZM67.2138 22.616H80.5578V26.104H67.2138V22.616ZM98.096 8.6C100.997 8.6 103.237 9.272 104.816 10.616C106.395 11.96 107.184 13.848 107.184 16.28C107.184 18.8187 106.395 20.792 104.816 22.2C103.237 23.608 100.997 24.312 98.096 24.312H93.04V31H88.752V8.6H98.096ZM98.096 20.76C99.696 20.76 100.933 20.3973 101.808 19.672C102.683 18.9467 103.12 17.848 103.12 16.376C103.12 14.968 102.683 13.9227 101.808 13.24C100.933 12.536 99.696 12.184 98.096 12.184H93.04V20.76H98.096ZM97.936 22.68H102.128L107.632 31H102.768L97.936 22.68ZM109.381 8.6H127.653V12.216H120.677V31H116.357V12.216H109.381V8.6Z" fill="#5A3E36"/>
<defs>
<clipPath id="clip0_652_5925">
<rect width="33" height="33" fill="white" transform="translate(0 3)"/>
</clipPath>
</defs>
</svg>
