<svg width="20" height="20" viewBox="0 0 20 20" fill="none" xmlns="http://www.w3.org/2000/svg">
<path fill-rule="evenodd" clip-rule="evenodd" d="M18.3333 7.5C18.3333 4.58333 16.2817 2.5 13.75 2.5C12.2 2.5 10.8333 3.33333 9.99999 4.16667C9.16666 3.33333 7.79999 2.5 6.24999 2.5C3.74999 2.5 1.66666 4.58333 1.66666 7.5C1.66666 13.0007 7.22429 16.2784 9.60495 17.6825C9.74889 17.7674 9.88121 17.8454 9.99999 17.9167C10.1188 17.8454 10.2511 17.7674 10.395 17.6825C12.7757 16.2784 18.3333 13.0007 18.3333 7.5ZM12.795 14.0858C12.175 14.5792 11.5125 15.04 10.7783 15.5033C10.5292 15.66 10.2825 15.8108 9.99999 15.9792C9.71749 15.8108 9.47082 15.66 9.22166 15.5025C8.48749 15.04 7.82499 14.5792 7.20416 14.0858C4.72166 12.1108 3.33332 9.95333 3.33332 7.5C3.33332 5.54667 4.63332 4.16667 6.24999 4.16667C7.14666 4.16667 8.11666 4.64167 8.82166 5.345L9.99999 6.52333L11.1783 5.345C11.8833 4.64167 12.8533 4.16667 13.75 4.16667C15.3858 4.16667 16.6667 5.53333 16.6667 7.5C16.6667 9.9525 15.2792 12.1108 12.795 14.0858Z" fill="#001018"/>
</svg>
