<svg width="34" height="34" viewBox="0 0 34 34" fill="none" xmlns="http://www.w3.org/2000/svg">
<path d="M8.46655 29.2C8.46655 26.9368 9.3656 24.7663 10.9659 23.166C12.5662 21.5657 14.7367 20.6667 16.9999 20.6667C19.2631 20.6667 21.4336 21.5657 23.0339 23.166C24.6342 24.7663 25.5332 26.9368 25.5332 29.2H23.3999C23.3999 27.5026 22.7256 25.8747 21.5254 24.6745C20.3251 23.4743 18.6973 22.8 16.9999 22.8C15.3025 22.8 13.6746 23.4743 12.4744 24.6745C11.2742 25.8747 10.5999 27.5026 10.5999 29.2H8.46655ZM16.9999 19.6C13.4639 19.6 10.5999 16.736 10.5999 13.2C10.5999 9.66399 13.4639 6.79999 16.9999 6.79999C20.5359 6.79999 23.3999 9.66399 23.3999 13.2C23.3999 16.736 20.5359 19.6 16.9999 19.6ZM16.9999 17.4667C19.3572 17.4667 21.2666 15.5573 21.2666 13.2C21.2666 10.8427 19.3572 8.93332 16.9999 8.93332C14.6426 8.93332 12.7332 10.8427 12.7332 13.2C12.7332 15.5573 14.6426 17.4667 16.9999 17.4667Z" fill="black"/>
</svg>
