<svg width="34" height="34" viewBox="0 0 34 34" fill="none" xmlns="http://www.w3.org/2000/svg">
<path fill-rule="evenodd" clip-rule="evenodd" d="M28.3361 26.8264L23.7667 22.2582C25.1293 20.5584 25.8705 18.4442 25.8674 16.2657C25.8674 10.9655 21.5658 6.664 16.2657 6.664C10.9656 6.664 6.66406 10.9655 6.66406 16.2657C6.66406 21.5658 10.9656 25.8673 16.2657 25.8673C18.4442 25.8704 20.5584 25.1293 22.2582 23.7667L26.8265 28.336L28.3361 26.8264ZM23.7336 16.2657C23.7367 18.2078 22.9806 20.0742 21.6266 21.4666L21.4666 21.6266C20.0742 22.9806 18.2078 23.7367 16.2657 23.7336C12.1391 23.7336 8.79773 20.3912 8.79773 16.2657C8.79773 12.1391 12.1391 8.79772 16.2657 8.79772C20.3912 8.79772 23.7336 12.1391 23.7336 16.2657Z" fill="black"/>
</svg>
