<svg width="401" height="46" viewBox="0 0 401 46" fill="none" xmlns="http://www.w3.org/2000/svg">
<mask id="path-1-inside-1_480_8551" fill="white">
<path d="M-1 0H401V46H-1V0Z"/>
</mask>
<path d="M-1 0V1H401V0V-1H-1V0ZM401 46V45H-1V46V47H401V46Z" fill="#C4C4C4" fill-opacity="0.6" mask="url(#path-1-inside-1_480_8551)"/>
<path fill-rule="evenodd" clip-rule="evenodd" d="M92.5833 22.5C92.5833 26.8724 96.1275 30.4167 100.5 30.4167C104.872 30.4167 108.417 26.8724 108.417 22.5C108.417 18.1277 104.872 14.5834 100.5 14.5834C96.1275 14.5834 92.5833 18.1277 92.5833 22.5ZM106.833 22.5C106.833 25.9978 103.998 28.8334 100.5 28.8334C97.0021 28.8334 94.1666 25.9978 94.1666 22.5C94.1666 19.0022 97.0021 16.1667 100.5 16.1667C103.998 16.1667 106.833 19.0022 106.833 22.5ZM101.292 24.875V26.4584H99.7083V24.875H101.292ZM101.292 23.2917V18.5417H99.7083V23.2917H101.292Z" fill="#C4C4C4"/>
<path d="M122.464 18.6C123.528 18.6 124.352 18.852 124.936 19.356C125.52 19.86 125.812 20.568 125.812 21.48C125.812 22.432 125.52 23.172 124.936 23.7C124.352 24.228 123.528 24.492 122.464 24.492H119.932L120.64 23.784V27H119.032V18.6H122.464ZM122.392 23.16C122.992 23.16 123.452 23.024 123.772 22.752C124.1 22.48 124.264 22.068 124.264 21.516C124.264 20.988 124.1 20.596 123.772 20.34C123.452 20.076 122.992 19.944 122.392 19.944H119.932L120.64 19.236V23.868L119.932 23.16H122.392ZM130.634 18.6C131.722 18.6 132.562 18.852 133.154 19.356C133.746 19.86 134.042 20.568 134.042 21.48C134.042 22.432 133.746 23.172 133.154 23.7C132.562 24.228 131.722 24.492 130.634 24.492H128.738V27H127.13V18.6H130.634ZM130.634 23.16C131.234 23.16 131.698 23.024 132.026 22.752C132.354 22.48 132.518 22.068 132.518 21.516C132.518 20.988 132.354 20.596 132.026 20.34C131.698 20.076 131.234 19.944 130.634 19.944H128.738V23.16H130.634ZM130.574 23.88H132.146L134.21 27H132.386L130.574 23.88ZM139.618 18.504C140.25 18.504 140.838 18.612 141.382 18.828C141.926 19.044 142.398 19.348 142.798 19.74C143.206 20.132 143.522 20.588 143.746 21.108C143.978 21.62 144.094 22.18 144.094 22.788C144.094 23.388 143.978 23.952 143.746 24.48C143.522 25.008 143.206 25.468 142.798 25.86C142.398 26.252 141.926 26.56 141.382 26.784C140.838 27 140.25 27.108 139.618 27.108C138.986 27.108 138.398 27 137.854 26.784C137.318 26.56 136.846 26.252 136.438 25.86C136.03 25.468 135.71 25.012 135.478 24.492C135.254 23.964 135.142 23.396 135.142 22.788C135.142 22.18 135.254 21.616 135.478 21.096C135.71 20.576 136.03 20.124 136.438 19.74C136.846 19.348 137.318 19.044 137.854 18.828C138.398 18.612 138.986 18.504 139.618 18.504ZM139.642 19.86C139.25 19.86 138.882 19.936 138.538 20.088C138.194 20.232 137.89 20.44 137.626 20.712C137.362 20.976 137.154 21.284 137.002 21.636C136.858 21.988 136.786 22.372 136.786 22.788C136.786 23.204 136.862 23.592 137.014 23.952C137.166 24.304 137.374 24.616 137.638 24.888C137.902 25.16 138.206 25.372 138.55 25.524C138.894 25.676 139.258 25.752 139.642 25.752C140.026 25.752 140.386 25.676 140.722 25.524C141.066 25.372 141.366 25.16 141.622 24.888C141.878 24.616 142.078 24.304 142.222 23.952C142.374 23.592 142.45 23.204 142.45 22.788C142.45 22.372 142.374 21.988 142.222 21.636C142.078 21.284 141.878 20.976 141.622 20.712C141.366 20.44 141.066 20.232 140.722 20.088C140.386 19.936 140.026 19.86 139.642 19.86ZM145.505 18.6H147.113V27H145.505V18.6ZM148.705 18.6H155.677V19.668L150.733 25.656H155.737V27H148.561V25.932L153.505 19.944H148.705V18.6ZM156.18 18.6H157.908L160.38 25.308L162.864 18.6H164.544L161.172 27H159.504L156.18 18.6ZM169.266 18.504C169.898 18.504 170.486 18.612 171.03 18.828C171.574 19.044 172.046 19.348 172.446 19.74C172.854 20.132 173.17 20.588 173.394 21.108C173.626 21.62 173.742 22.18 173.742 22.788C173.742 23.388 173.626 23.952 173.394 24.48C173.17 25.008 172.854 25.468 172.446 25.86C172.046 26.252 171.574 26.56 171.03 26.784C170.486 27 169.898 27.108 169.266 27.108C168.634 27.108 168.046 27 167.502 26.784C166.966 26.56 166.494 26.252 166.086 25.86C165.678 25.468 165.358 25.012 165.126 24.492C164.902 23.964 164.79 23.396 164.79 22.788C164.79 22.18 164.902 21.616 165.126 21.096C165.358 20.576 165.678 20.124 166.086 19.74C166.494 19.348 166.966 19.044 167.502 18.828C168.046 18.612 168.634 18.504 169.266 18.504ZM169.29 19.86C168.898 19.86 168.53 19.936 168.186 20.088C167.842 20.232 167.538 20.44 167.274 20.712C167.01 20.976 166.802 21.284 166.65 21.636C166.506 21.988 166.434 22.372 166.434 22.788C166.434 23.204 166.51 23.592 166.662 23.952C166.814 24.304 167.022 24.616 167.286 24.888C167.55 25.16 167.854 25.372 168.198 25.524C168.542 25.676 168.906 25.752 169.29 25.752C169.674 25.752 170.034 25.676 170.37 25.524C170.714 25.372 171.014 25.16 171.27 24.888C171.526 24.616 171.726 24.304 171.87 23.952C172.022 23.592 172.098 23.204 172.098 22.788C172.098 22.372 172.022 21.988 171.87 21.636C171.726 21.284 171.526 20.976 171.27 20.712C171.014 20.44 170.714 20.232 170.37 20.088C170.034 19.936 169.674 19.86 169.29 19.86ZM178.645 18.6C179.285 18.6 179.869 18.704 180.397 18.912C180.933 19.112 181.393 19.4 181.777 19.776C182.169 20.152 182.473 20.596 182.689 21.108C182.905 21.62 183.013 22.184 183.013 22.8C183.013 23.408 182.905 23.968 182.689 24.48C182.473 24.992 182.169 25.436 181.777 25.812C181.385 26.188 180.917 26.48 180.373 26.688C179.829 26.896 179.237 27 178.597 27H175.153V18.6H178.645ZM178.681 25.656C179.065 25.656 179.421 25.588 179.749 25.452C180.077 25.308 180.361 25.112 180.601 24.864C180.849 24.608 181.041 24.308 181.177 23.964C181.321 23.612 181.393 23.228 181.393 22.812C181.393 22.388 181.321 22.004 181.177 21.66C181.033 21.308 180.837 21.004 180.589 20.748C180.341 20.484 180.049 20.284 179.713 20.148C179.377 20.012 179.009 19.944 178.609 19.944H176.761V25.656H178.681ZM184.434 18.6H186.042V27H184.434V18.6ZM191.337 18.6H192.861L197.613 25.056L197.193 25.2V18.6H198.753V27H197.217L192.489 20.556L192.909 20.412V27H191.337V18.6ZM200.817 18.6H202.425V27H200.817V18.6ZM209.765 20.676C209.469 20.492 209.165 20.34 208.853 20.22C208.549 20.1 208.261 20.016 207.989 19.968C207.717 19.912 207.469 19.884 207.245 19.884C206.869 19.884 206.565 19.956 206.333 20.1C206.109 20.244 205.997 20.456 205.997 20.736C205.997 20.992 206.077 21.2 206.237 21.36C206.405 21.52 206.621 21.652 206.885 21.756C207.157 21.86 207.453 21.96 207.773 22.056C208.093 22.152 208.413 22.26 208.733 22.38C209.053 22.492 209.345 22.64 209.609 22.824C209.881 23.008 210.097 23.244 210.257 23.532C210.417 23.82 210.497 24.18 210.497 24.612C210.497 25.132 210.357 25.576 210.077 25.944C209.797 26.312 209.413 26.596 208.925 26.796C208.445 26.996 207.897 27.096 207.281 27.096C206.833 27.096 206.393 27.04 205.961 26.928C205.537 26.808 205.133 26.648 204.749 26.448C204.373 26.248 204.033 26.016 203.729 25.752L204.401 24.444C204.689 24.708 205.001 24.936 205.337 25.128C205.673 25.312 206.009 25.456 206.345 25.56C206.689 25.656 207.009 25.704 207.305 25.704C207.761 25.704 208.113 25.616 208.361 25.44C208.617 25.264 208.745 25.016 208.745 24.696C208.745 24.432 208.661 24.22 208.493 24.06C208.333 23.9 208.121 23.768 207.857 23.664C207.593 23.552 207.297 23.456 206.969 23.376C206.649 23.288 206.329 23.188 206.009 23.076C205.689 22.956 205.393 22.808 205.121 22.632C204.857 22.448 204.641 22.216 204.473 21.936C204.313 21.656 204.233 21.3 204.233 20.868C204.233 20.38 204.365 19.96 204.629 19.608C204.893 19.248 205.257 18.972 205.721 18.78C206.193 18.58 206.745 18.48 207.377 18.48C207.937 18.48 208.481 18.56 209.009 18.72C209.545 18.88 210.013 19.092 210.413 19.356L209.765 20.676ZM213.472 23.544C213.472 24.232 213.66 24.772 214.036 25.164C214.412 25.556 214.916 25.752 215.548 25.752C216.172 25.752 216.668 25.56 217.036 25.176C217.404 24.784 217.588 24.24 217.588 23.544V18.6H219.196V23.544C219.196 24.28 219.048 24.916 218.752 25.452C218.464 25.98 218.044 26.388 217.492 26.676C216.948 26.964 216.3 27.108 215.548 27.108C214.788 27.108 214.132 26.964 213.58 26.676C213.028 26.388 212.604 25.98 212.308 25.452C212.012 24.916 211.864 24.28 211.864 23.544V18.6H213.472V23.544ZM227.829 18.6C228.917 18.6 229.757 18.852 230.349 19.356C230.941 19.86 231.237 20.568 231.237 21.48C231.237 22.432 230.941 23.172 230.349 23.7C229.757 24.228 228.917 24.492 227.829 24.492H225.933V27H224.325V18.6H227.829ZM227.829 23.16C228.429 23.16 228.893 23.024 229.221 22.752C229.549 22.48 229.713 22.068 229.713 21.516C229.713 20.988 229.549 20.596 229.221 20.34C228.893 20.076 228.429 19.944 227.829 19.944H225.933V23.16H227.829ZM227.769 23.88H229.341L231.405 27H229.581L227.769 23.88ZM232.997 18.6H239.153V19.944H234.605V22.116H238.685V23.448H234.605V25.656H239.297V27H232.997V18.6ZM240.462 18.6H247.434V19.668L242.49 25.656H247.494V27H240.318V25.932L245.262 19.944H240.462V18.6ZM248.946 18.6H255.102V19.944H250.554V22.116H254.634V23.448H250.554V25.656H255.246V27H248.946V18.6ZM260.384 18.6C261.472 18.6 262.312 18.852 262.904 19.356C263.496 19.86 263.792 20.568 263.792 21.48C263.792 22.432 263.496 23.172 262.904 23.7C262.312 24.228 261.472 24.492 260.384 24.492H258.488V27H256.88V18.6H260.384ZM260.384 23.16C260.984 23.16 261.448 23.024 261.776 22.752C262.104 22.48 262.268 22.068 262.268 21.516C262.268 20.988 262.104 20.596 261.776 20.34C261.448 20.076 260.984 19.944 260.384 19.944H258.488V23.16H260.384ZM260.324 23.88H261.896L263.96 27H262.136L260.324 23.88ZM264.45 18.6H266.178L268.65 25.308L271.134 18.6H272.814L269.442 27H267.774L264.45 18.6ZM273.872 18.6H275.48V27H273.872V18.6ZM281.044 18.6C282.132 18.6 282.972 18.852 283.564 19.356C284.156 19.86 284.452 20.568 284.452 21.48C284.452 22.432 284.156 23.172 283.564 23.7C282.972 24.228 282.132 24.492 281.044 24.492H279.148V27H277.54V18.6H281.044ZM281.044 23.16C281.644 23.16 282.108 23.024 282.436 22.752C282.764 22.48 282.928 22.068 282.928 21.516C282.928 20.988 282.764 20.596 282.436 20.34C282.108 20.076 281.644 19.944 281.044 19.944H279.148V23.16H281.044ZM280.984 23.88H282.556L284.62 27H282.796L280.984 23.88ZM288.864 18.6H290.508L294.144 27H292.428L289.632 20.22L286.848 27H285.168L288.864 18.6ZM287.1 23.856H292.104V25.164H287.1V23.856ZM295.177 18.6H296.701L301.453 25.056L301.033 25.2V18.6H302.593V27H301.057L296.329 20.556L296.749 20.412V27H295.177V18.6ZM304.657 18.6H306.265V27H304.657V18.6Z" fill="#C4C4C4"/>
</svg>
